<svg width="24" height="18" viewBox="0 0 24 18" fill="none" xmlns="http://www.w3.org/2000/svg">
<path d="M23.0335 2.94832L18.18 0.30082C18.1251 0.270806 18.0635 0.255013 18.001 0.254883H15.001C14.9015 0.254883 14.8061 0.294392 14.7358 0.364718C14.6655 0.435044 14.626 0.530427 14.626 0.629883C14.626 1.32608 14.3494 1.99375 13.8571 2.48604C13.3648 2.97832 12.6972 3.25488 12.001 3.25488C11.3048 3.25488 10.6371 2.97832 10.1448 2.48604C9.65252 1.99375 9.37596 1.32608 9.37596 0.629883C9.37596 0.530427 9.33645 0.435044 9.26613 0.364718C9.1958 0.294392 9.10042 0.254883 9.00096 0.254883H6.00096C5.93861 0.255456 5.87739 0.271567 5.82284 0.301758L0.968461 2.94832C0.708956 3.08391 0.513849 3.31692 0.425967 3.59621C0.338084 3.8755 0.364606 4.17825 0.499711 4.43801L2.30721 7.88895C2.40649 8.07598 2.55508 8.23226 2.73688 8.34084C2.91867 8.44941 3.12672 8.50615 3.33846 8.50488H5.62596V16.3799C5.62596 16.6783 5.74449 16.9644 5.95547 17.1754C6.16644 17.3864 6.45259 17.5049 6.75096 17.5049H17.251C17.5493 17.5049 17.8355 17.3864 18.0465 17.1754C18.2574 16.9644 18.376 16.6783 18.376 16.3799V8.50488H20.6569C20.8686 8.50615 21.0767 8.44941 21.2585 8.34084C21.4403 8.23226 21.5889 8.07598 21.6881 7.88895L23.4956 4.43801C23.6312 4.17905 23.6587 3.87692 23.5721 3.59774C23.4855 3.31855 23.2918 3.08505 23.0335 2.94832ZM3.34502 7.75488C3.26899 7.75673 3.19389 7.7378 3.12781 7.70014C3.06173 7.66247 3.00718 7.6075 2.97002 7.54113L1.16721 4.0902C1.14543 4.04809 1.1323 4.00204 1.12859 3.95478C1.12488 3.90752 1.13066 3.85999 1.1456 3.815C1.16054 3.77001 1.18433 3.72846 1.21558 3.6928C1.24682 3.65715 1.28488 3.6281 1.32752 3.60738L5.62596 1.26176V7.75488H3.34502ZM17.626 16.3799C17.626 16.4793 17.5865 16.5747 17.5161 16.645C17.4458 16.7154 17.3504 16.7549 17.251 16.7549H6.75096C6.65151 16.7549 6.55612 16.7154 6.4858 16.645C6.41547 16.5747 6.37596 16.4793 6.37596 16.3799V1.00488H8.64659C8.73827 1.83041 9.13115 2.59313 9.75004 3.14709C10.3689 3.70105 11.1704 4.00733 12.001 4.00733C12.8316 4.00733 13.633 3.70105 14.2519 3.14709C14.8708 2.59313 15.2637 1.83041 15.3553 1.00488H17.626V16.3799ZM22.8347 4.0902L21.0281 7.54113C20.991 7.6075 20.9364 7.66247 20.8704 7.70014C20.8043 7.7378 20.7292 7.75673 20.6531 7.75488H18.376V1.26176L22.6744 3.60551C22.7173 3.62622 22.7556 3.65534 22.787 3.69113C22.8184 3.72693 22.8423 3.76868 22.8572 3.81389C22.8722 3.85911 22.8779 3.90686 22.874 3.95433C22.8702 4.0018 22.8568 4.048 22.8347 4.0902Z" fill="black"/>
</svg>
