<svg width="74" height="50" viewBox="0 0 74 50" fill="none" xmlns="http://www.w3.org/2000/svg">
<path d="M41.9792 15.5462C41.9792 12.8642 41.0486 10.5927 39.1875 8.73158C37.3264 6.86908 35.0549 5.93783 32.3729 5.93783V4.16699C35.5243 4.16699 38.2083 5.27533 40.425 7.49199C42.6417 9.70866 43.75 12.3934 43.75 15.5462H41.9792ZM36.4583 15.5462C36.4583 14.4267 36.0569 13.4656 35.2542 12.6628C34.4514 11.86 33.4903 11.4587 32.3708 11.4587V9.68783C34.0139 9.68783 35.3972 10.2517 36.5208 11.3795C37.6431 12.5059 38.2125 13.8948 38.2292 15.5462H36.4583ZM9.61667 41.667C8.65694 41.667 7.85625 41.3462 7.21458 40.7045C6.57292 40.0628 6.25139 39.2614 6.25 38.3003V15.867C6.25 14.9073 6.57153 14.1066 7.21458 13.4649C7.85764 12.8232 8.65764 12.5017 9.61458 12.5003H15.7771L19.6313 8.33366H30.2896V10.417H20.5333L16.6917 14.5837H9.61458C9.24097 14.5837 8.93403 14.7038 8.69375 14.9441C8.45347 15.1844 8.33333 15.492 8.33333 15.867V38.3024C8.33333 38.676 8.45347 38.983 8.69375 39.2232C8.93403 39.4635 9.24167 39.5837 9.61667 39.5837H40.3854C40.759 39.5837 41.066 39.4635 41.3062 39.2232C41.5465 38.983 41.6667 38.6753 41.6667 38.3003V17.6295H43.75V38.3045C43.75 39.2628 43.4292 40.0635 42.7875 40.7066C42.1458 41.3496 41.3451 41.6698 40.3854 41.667H9.61667ZM25 34.8545C27.1764 34.8545 29.016 34.1038 30.5187 32.6024C32.0215 31.101 32.7729 29.2614 32.7729 27.0837C32.7729 24.9059 32.0215 23.0663 30.5187 21.5649C29.016 20.0635 27.1764 19.3121 25 19.3107C22.8236 19.3094 20.984 20.0607 19.4812 21.5649C17.9785 23.0691 17.2271 24.9087 17.2271 27.0837C17.2271 29.2587 17.9785 31.0982 19.4812 32.6024C20.984 34.1066 22.8236 34.858 25 34.8566M25 32.7732C23.3819 32.7732 22.0292 32.2295 20.9417 31.142C19.8542 30.0545 19.3104 28.7017 19.3104 27.0837C19.3104 25.4656 19.8542 24.1128 20.9417 23.0253C22.0292 21.9378 23.3819 21.3941 25 21.3941C26.6181 21.3941 27.9708 21.9378 29.0583 23.0253C30.1458 24.1128 30.6896 25.4656 30.6896 27.0837C30.6896 28.7017 30.1458 30.0545 29.0583 31.142C27.9708 32.2295 26.6181 32.7732 25 32.7732Z" fill="#4B46E0"/>
<path d="M69 25.998H63V31.998H61V25.998H55V23.998H61V17.998H63V23.998H69V25.998Z" fill="#4B46E0"/>
</svg>
